<?xml version="1.0" encoding="UTF-8"?>
<svg id="Layer_1" data-name="Layer 1" xmlns="http://www.w3.org/2000/svg" viewBox="0 0 272.98 272.97">
  <defs>
    <style>
      .cls-1 {
        fill: #1f95dd;
      }

      .cls-2 {
        fill: #ece5d0;
      }

      .cls-3 {
        fill: #f3d697;
      }
    </style>
  </defs>
  <polygon class="cls-1" points="272.98 136.48 233 176.46 233 232.99 176.47 232.99 136.49 272.97 96.51 232.99 39.98 232.99 39.98 176.46 0 136.48 39.98 96.5 39.98 39.97 96.52 39.97 136.49 0 176.46 39.97 233 39.97 233 96.5 272.98 136.48"/>
  <g>
    <g>
      <g>
        <g>
          <path class="cls-3" d="M69.08,124.06c.2,0,.32.16.37.47.05.31.07.6.07.86,0,.89-.04,1.68-.12,2.37-.08.69-.12,1.38-.12,2.07,0,1.19.14,2.2.42,3.04.28.84.7,1.56,1.26,2.15.56.59,1.26,1.09,2.1,1.48.84.4,1.82.74,2.94,1.04,2.21.59,4.54,1.05,6.99,1.36,2.45.31,4.96.47,7.53.47,2.34,0,4.71-.07,7.11-.2,2.4-.13,4.81-.35,7.21-.67,2.4-.31,4.77-.72,7.09-1.23,2.32-.51,4.57-1.14,6.74-1.9.92-.33,1.92-.73,2.99-1.21,1.07-.48,2.1-1.04,3.09-1.68.99-.64,1.87-1.36,2.64-2.15.77-.79,1.34-1.66,1.7-2.62.07-.16.16-.43.27-.79.11-.36.25-.72.4-1.09.15-.36.3-.68.47-.96.16-.28.35-.42.54-.42.26,0,.47.12.62.35.15.23.22.48.22.74,0,.96-.15,2.03-.44,3.24-.3,1.2-.71,2.42-1.23,3.66-.53,1.23-1.16,2.43-1.9,3.58-.74,1.15-1.56,2.16-2.45,3.01-2.34,2.24-4.94,4.08-7.8,5.51-2.87,1.43-5.94,2.57-9.24,3.41-3.29.84-6.76,1.42-10.4,1.75-3.64.33-7.39.49-11.24.49-1.35,0-2.82-.04-4.4-.12-1.58-.08-3.16-.26-4.74-.54-1.58-.28-3.1-.67-4.57-1.19-1.47-.51-2.77-1.19-3.9-2.05-1.14-.86-2.04-1.89-2.72-3.11-.68-1.22-1.01-2.68-1.01-4.4,0-1.32.11-2.83.32-4.54.21-1.71.49-3.32.84-4.82.35-1.5.72-2.77,1.14-3.8.41-1.04.82-1.56,1.21-1.56ZM84.93,126.53c.99-1.25,2.03-2.54,3.14-3.85,1.1-1.32,2.08-2.49,2.94-3.51.16-.16.3-.25.4-.25.13,0,.36.12.69.35.86.59,1.84,1.31,2.94,2.15,1.1.84,2.13,1.62,3.09,2.35.95-1.15,1.93-2.34,2.91-3.56.99-1.22,1.89-2.3,2.72-3.26.16-.16.3-.25.4-.25.13,0,.36.12.69.35.86.59,1.84,1.29,2.94,2.1,1.1.81,2.13,1.57,3.09,2.3.16.17.31.3.44.4.13.1.2.21.2.35,0,.1-.1.28-.3.54l-5.98,7.21c-.07.1-.16.21-.27.32-.12.12-.21.17-.27.17-.13,0-.33-.08-.59-.25-.92-.63-1.94-1.36-3.04-2.2-1.1-.84-2.13-1.69-3.09-2.54l-5.58,6.72c-.07.1-.16.21-.27.32-.12.12-.21.17-.27.17-.13,0-.33-.08-.59-.25-.92-.63-1.94-1.37-3.04-2.25-1.1-.87-2.13-1.74-3.09-2.59-.33-.26-.49-.46-.49-.59,0-.07.03-.14.1-.22.07-.08.13-.16.2-.22Z"/>
          <path class="cls-3" d="M185.56,134.53c.36-.3.74-.57,1.14-.82.39-.25.81-.5,1.24-.77v-.05c-.87.47-1.66,1.01-2.37,1.63ZM185.69,123.25c.47-.67.99-1.31,1.57-1.91-.59.59-1.12,1.23-1.57,1.91Z"/>
          <path class="cls-3" d="M176.37,162.98c.99-1.25,2.03-2.54,3.14-3.85,1.1-1.32,2.08-2.49,2.94-3.51.17-.16.3-.25.4-.25.13,0,.36.12.69.35.86.59,1.79,1.27,2.82,2.03,1.02.76,2.01,1.5,2.96,2.22.16.17.31.3.44.4.13.1.2.21.2.35,0,.1-.1.28-.3.54l-5.98,7.21c-.07.1-.16.21-.27.32-.12.11-.21.17-.27.17-.13,0-.33-.08-.59-.25-.92-.63-1.91-1.35-2.96-2.17-1.05-.82-2.06-1.66-3.01-2.52-.33-.26-.49-.46-.49-.59,0-.07.03-.14.1-.22.07-.08.13-.16.2-.22Z"/>
          <path class="cls-3" d="M185.41,123.66v.02s.02-.03.02-.04c.06-.1.13-.2.19-.3-.07.11-.15.21-.21.32Z"/>
        </g>
        <g>
          <path class="cls-3" d="M69.08,124.06c.2,0,.32.16.37.47.05.31.07.6.07.86,0,.89-.04,1.68-.12,2.37-.08.69-.12,1.38-.12,2.07,0,1.19.14,2.2.42,3.04.28.84.7,1.56,1.26,2.15.56.59,1.26,1.09,2.1,1.48.84.4,1.82.74,2.94,1.04,2.21.59,4.54,1.05,6.99,1.36,2.45.31,4.96.47,7.53.47,2.34,0,4.71-.07,7.11-.2,2.4-.13,4.81-.35,7.21-.67,2.4-.31,4.77-.72,7.09-1.23,2.32-.51,4.57-1.14,6.74-1.9.92-.33,1.92-.73,2.99-1.21,1.07-.48,2.1-1.04,3.09-1.68.99-.64,1.87-1.36,2.64-2.15.77-.79,1.34-1.66,1.7-2.62.07-.16.16-.43.27-.79.11-.36.25-.72.4-1.09.15-.36.3-.68.47-.96.16-.28.35-.42.54-.42.26,0,.47.12.62.35.15.23.22.48.22.74,0,.96-.15,2.03-.44,3.24-.3,1.2-.71,2.42-1.23,3.66-.53,1.23-1.16,2.43-1.9,3.58-.74,1.15-1.56,2.16-2.45,3.01-2.34,2.24-4.94,4.08-7.8,5.51-2.87,1.43-5.94,2.57-9.24,3.41-3.29.84-6.76,1.42-10.4,1.75-3.64.33-7.39.49-11.24.49-1.35,0-2.82-.04-4.4-.12-1.58-.08-3.16-.26-4.74-.54-1.58-.28-3.1-.67-4.57-1.19-1.47-.51-2.77-1.19-3.9-2.05-1.14-.86-2.04-1.89-2.72-3.11-.68-1.22-1.01-2.68-1.01-4.4,0-1.32.11-2.83.32-4.54.21-1.71.49-3.32.84-4.82.35-1.5.72-2.77,1.14-3.8.41-1.04.82-1.56,1.21-1.56ZM84.93,126.53c.99-1.25,2.03-2.54,3.14-3.85,1.1-1.32,2.08-2.49,2.94-3.51.16-.16.3-.25.4-.25.13,0,.36.12.69.35.86.59,1.84,1.31,2.94,2.15,1.1.84,2.13,1.62,3.09,2.35.95-1.15,1.93-2.34,2.91-3.56.99-1.22,1.89-2.3,2.72-3.26.16-.16.3-.25.4-.25.13,0,.36.12.69.35.86.59,1.84,1.29,2.94,2.1,1.1.81,2.13,1.57,3.09,2.3.16.17.31.3.44.4.13.1.2.21.2.35,0,.1-.1.28-.3.54l-5.98,7.21c-.07.1-.16.21-.27.32-.12.12-.21.17-.27.17-.13,0-.33-.08-.59-.25-.92-.63-1.94-1.36-3.04-2.2-1.1-.84-2.13-1.69-3.09-2.54l-5.58,6.72c-.07.1-.16.21-.27.32-.12.12-.21.17-.27.17-.13,0-.33-.08-.59-.25-.92-.63-1.94-1.37-3.04-2.25-1.1-.87-2.13-1.74-3.09-2.59-.33-.26-.49-.46-.49-.59,0-.07.03-.14.1-.22.07-.08.13-.16.2-.22Z"/>
          <path class="cls-3" d="M185.56,134.53c.36-.3.74-.57,1.14-.82.39-.25.81-.5,1.24-.77v-.05c-.87.47-1.66,1.01-2.37,1.63ZM185.69,123.25c.47-.67.99-1.31,1.57-1.91-.59.59-1.12,1.23-1.57,1.91Z"/>
          <path class="cls-3" d="M176.37,162.98c.99-1.25,2.03-2.54,3.14-3.85,1.1-1.32,2.08-2.49,2.94-3.51.17-.16.3-.25.4-.25.13,0,.36.12.69.35.86.59,1.79,1.27,2.82,2.03,1.02.76,2.01,1.5,2.96,2.22.16.17.31.3.44.4.13.1.2.21.2.35,0,.1-.1.28-.3.54l-5.98,7.21c-.07.1-.16.21-.27.32-.12.11-.21.17-.27.17-.13,0-.33-.08-.59-.25-.92-.63-1.91-1.35-2.96-2.17-1.05-.82-2.06-1.66-3.01-2.52-.33-.26-.49-.46-.49-.59,0-.07.03-.14.1-.22.07-.08.13-.16.2-.22Z"/>
          <path class="cls-3" d="M185.41,123.66v.02s.02-.03.02-.04c.06-.1.13-.2.19-.3-.07.11-.15.21-.21.32Z"/>
          <path class="cls-3" d="M201.91,109.09c0,1.48-.19,3.2-.57,5.16-.38,1.96-.96,3.98-1.75,6.05-.39.99-.82,1.98-1.28,2.99-.46,1-.97,1.95-1.53,2.84-.56.89-1.19,1.71-1.88,2.47-.69.76-1.47,1.38-2.32,1.88-1.22.73-2.45,1.38-3.71,1.95-.32.15-.63.3-.94.47-.87.47-1.66,1.01-2.37,1.63-.56.46-1.02,1.11-1.38,1.95-.36.84-.79,2.02-1.28,3.53-.3.95-.58,1.88-.87,2.76-.28.89-.58,1.75-.91,2.6-.33.84-.72,1.68-1.16,2.52-.45.84-.98,1.69-1.61,2.55-.26.36-.51.67-.74.91-.23.25-.47.46-.72.64s-.53.34-.84.47c-.31.13-.69.26-1.11.4-2.57.76-5.16,1.39-7.75,1.9-2.6.51-5.14,1.06-7.61,1.66-.16.03-.31.06-.44.07s-.23.02-.3.02c-.72,0-1.09-.21-1.09-.64,0-.4.31-.81.94-1.24.07-.07.16-.14.27-.22.12-.08.35-.24.69-.47.34-.23.83-.57,1.46-1.01.62-.45,1.5-1.04,2.62-1.78,1.12-.74,2.52-1.67,4.2-2.79,1.68-1.12,3.72-2.49,6.13-4.1,1.78-1.19,3.37-2.59,4.77-4.2,1.4-1.62,2.35-3.46,2.84-5.53.3-1.28.61-2.57.94-3.85.33-1.28.72-2.52,1.19-3.71.46-1.17,1-2.27,1.63-3.29,0-.01.02-.03.02-.04.06-.1.13-.2.19-.3.02-.03.04-.06.06-.09.47-.67.99-1.31,1.57-1.91.07-.08.15-.15.22-.22.17-.17.34-.34.52-.5,1-.9,2.2-1.64,3.58-2.2.59-.3,1.15-.58,1.68-.84.53-.26,1.04-.56,1.53-.89.49-.33.97-.71,1.43-1.14.46-.43.94-.95,1.43-1.58.66-.86,1.13-1.72,1.41-2.59.28-.87.62-1.79,1.01-2.74.2-.53.5-.79.89-.79.63,0,.94.41.94,1.24Z"/>
        </g>
      </g>
      <path class="cls-3" d="M73.44,169.79l.3-1.19c1.85-.12,3.85-.44,5.99-.95-.57,1.67-.99,3.02-1.25,4.04l-1.33,5.42c2.87.01,5.03-.7,6.48-2.13,1.46-1.43,2.19-3.14,2.2-5.12,0-1.38-.51-2.49-1.56-3.34-1.04-.85-2.6-1.28-4.68-1.28-2.93-.01-5.73.67-8.4,2.06-2.66,1.39-4.74,3.2-6.24,5.44-1.49,2.24-2.24,4.49-2.25,6.75,0,.62.08,1.19.25,1.72.17.53.41,1.01.74,1.45.19.26.62.62,1.28,1.08.74.52,1.2.91,1.38,1.16.18.25.27.55.26.89s-.13.64-.38.89c-.25.25-.56.38-.91.37-.92,0-1.86-.68-2.8-2.03s-1.41-3.02-1.4-5c.01-2.73.84-5.36,2.48-7.91,1.64-2.55,3.95-4.59,6.94-6.12,2.99-1.53,6.28-2.29,9.86-2.27,2.92.01,5.13.6,6.64,1.76,1.51,1.16,2.26,2.56,2.26,4.22s-.52,3-1.55,4.29c-1.03,1.29-2.58,2.27-4.66,2.96,1.43.23,2.55.62,3.38,1.17.82.55,1.46,1.23,1.9,2.06.44.83.66,1.78.66,2.85,0,1.75-.53,3.41-1.56,4.96-1.04,1.56-2.56,2.85-4.56,3.87-2.01,1.02-4.1,1.53-6.27,1.52-.63,0-1.99-.07-4.06-.21-.99-.05-2.03-.08-3.11-.09-1.65,0-3.12.12-4.4.37l.37-1.34c1.7-.09,2.92-.49,3.64-1.21.72-.72,1.41-2.3,2.05-4.75l3.66-14.12c.15-.6.22-1.06.22-1.37,0-.24-.1-.46-.3-.65-.2-.19-.46-.28-.77-.29-.13,0-.29.02-.49.07ZM76.75,178.57l-1.26,4.89c-.64,2.53-1.26,4.48-1.84,5.84-.35.81-.79,1.5-1.34,2.06,1.46.36,2.71.55,3.77.55,2.84.01,4.99-.86,6.44-2.6,1.46-1.75,2.19-3.7,2.2-5.86,0-1.07-.26-1.99-.8-2.77-.54-.77-1.25-1.32-2.13-1.63-.88-.31-2.56-.47-5.04-.48Z"/>
      <path class="cls-3" d="M108.53,172.36l1.61-.33-1.85,6.15c-.74,2.45-1.44,5.26-2.1,8.46-.36,1.73-.55,2.85-.55,3.35s.2.75.6.76c.26,0,.67-.17,1.24-.51,1.01-.6,1.98-1.34,2.9-2.23l.77.95c-1.86,1.68-3.04,2.7-3.56,3.05-1.04.71-2.03,1.23-2.97,1.57-.62.22-1.22.34-1.8.33-.42,0-.74-.1-.95-.3-.21-.2-.31-.48-.31-.85,0-.24.07-.58.2-1l.99-3.3c-1.4,1.66-3.07,3.09-5,4.28-1.19.74-2.27,1.11-3.26,1.11s-1.66-.34-2.16-1.01c-.68-.89-1.01-2.06-1.01-3.51,0-1.72.47-3.63,1.4-5.73.92-2.1,2.16-4.01,3.71-5.72,1.55-1.71,3.17-2.97,4.88-3.77,1.32-.61,3-.91,5.06-.9.52,0,1.05.04,1.58.1l.59-.95ZM105.5,176.07c-.87-.18-1.61-.27-2.21-.28-1.46,0-2.73.39-3.82,1.19-1.09.8-2.1,2.24-3.05,4.32-.94,2.08-1.42,4.16-1.42,6.23,0,1.1.18,1.9.55,2.39.37.49.86.73,1.46.74,1.12,0,2.32-.59,3.61-1.8,1.29-1.2,2.23-2.94,2.84-5.21l2.05-7.58Z"/>
      <path class="cls-3" d="M117.27,193.27h-3.62s1.73-6.55,1.73-6.55c.84-3.21,1.57-6.25,2.2-9.14.15-.71.22-1.16.22-1.34,0-.39-.18-.58-.53-.59-.24,0-.62.16-1.12.49-.5.33-1.42,1.15-2.73,2.46l-.75-.85c1.56-1.66,3.12-2.91,4.67-3.74,1.55-.83,2.74-1.24,3.57-1.24.29,0,.52.07.69.21.17.14.25.31.25.52s-.11.77-.33,1.69l-1.08,4.37c1.65-2.58,3.51-4.79,5.58-6.62.99-.87,1.82-1.31,2.49-1.31.49,0,.89.16,1.22.48.32.32.48.69.48,1.11s-.16.81-.48,1.12c-.32.31-1.11.67-2.37,1.08-1.2.4-2.18.88-2.93,1.45-.76.56-1.59,1.43-2.49,2.59-.9,1.16-1.54,2.18-1.9,3.04-.36.87-.91,2.88-1.66,6.04l-1.12,4.71Z"/>
      <path class="cls-3" d="M144.38,172.51l1.61-.33-1.85,6.15c-.74,2.45-1.44,5.26-2.1,8.46-.36,1.73-.55,2.85-.55,3.35s.2.75.61.76c.26,0,.67-.17,1.24-.51,1.01-.6,1.98-1.34,2.9-2.23l.77.95c-1.86,1.68-3.04,2.7-3.56,3.05-1.04.71-2.03,1.23-2.97,1.57-.62.22-1.22.34-1.8.33-.42,0-.74-.1-.95-.3-.21-.2-.31-.48-.31-.85,0-.24.07-.58.2-1l.99-3.3c-1.4,1.66-3.07,3.09-5,4.28-1.19.74-2.27,1.11-3.26,1.11s-1.66-.34-2.16-1.01c-.68-.89-1.01-2.06-1.01-3.51,0-1.72.47-3.63,1.4-5.73.92-2.1,2.16-4.01,3.71-5.72,1.55-1.71,3.17-2.97,4.88-3.77,1.32-.61,3-.91,5.06-.9.52,0,1.05.04,1.58.1l.59-.95ZM141.34,176.22c-.87-.18-1.61-.27-2.21-.28-1.46,0-2.73.39-3.82,1.19-1.09.8-2.1,2.24-3.05,4.32-.94,2.08-1.42,4.16-1.42,6.23,0,1.1.18,1.9.55,2.39.37.49.86.73,1.46.74,1.12,0,2.32-.59,3.61-1.8,1.29-1.2,2.23-2.94,2.84-5.21l2.05-7.58Z"/>
      <path class="cls-3" d="M187.2,172.69l1.61-.33-1.85,6.15c-.74,2.45-1.44,5.26-2.1,8.46-.36,1.73-.55,2.85-.55,3.35s.2.75.61.76c.26,0,.67-.17,1.24-.51,1.01-.6,1.98-1.34,2.9-2.23l.77.95c-1.86,1.68-3.04,2.7-3.56,3.05-1.04.71-2.03,1.23-2.97,1.57-.62.22-1.22.34-1.8.33-.42,0-.74-.1-.95-.3-.21-.2-.31-.48-.31-.85,0-.24.07-.58.2-1l.99-3.3c-1.4,1.66-3.07,3.09-5,4.28-1.19.74-2.27,1.11-3.26,1.11s-1.66-.34-2.16-1.01c-.68-.89-1.01-2.06-1.01-3.51,0-1.72.47-3.63,1.4-5.73.92-2.1,2.16-4.01,3.71-5.72,1.55-1.71,3.17-2.97,4.88-3.77,1.32-.61,3-.91,5.06-.9.52,0,1.05.04,1.58.1l.59-.95ZM184.17,176.39c-.87-.18-1.61-.27-2.21-.28-1.46,0-2.73.39-3.82,1.19-1.09.8-2.1,2.24-3.05,4.32-.94,2.08-1.42,4.16-1.42,6.23,0,1.1.18,1.9.55,2.39.37.49.86.73,1.46.74,1.12,0,2.32-.59,3.61-1.8,1.29-1.2,2.23-2.94,2.84-5.21l2.05-7.58Z"/>
      <path class="cls-3" d="M198.36,169.4l3.87-1.47-1.78,6.8,5.04.02-.4,1.73-5.04-.02-2.15,8.14c-.68,2.44-1.03,4.14-1.03,5.1,0,.44.09.75.28.95.19.2.44.29.77.3.5,0,1.27-.29,2.31-.89,1.37-.79,2.67-1.68,3.9-2.68l.92,1.12c-3.56,2.66-5.94,4.29-7.15,4.88-1.2.59-2.17.89-2.9.89-.6,0-1.07-.22-1.42-.66-.35-.44-.52-1.15-.51-2.14,0-1.17.32-2.95.95-5.35l2.52-9.67-3.94-.02.45-1.73,3.94.02,1.38-5.32Z"/>
      <path class="cls-3" d="M152.39,193.41l-4.07,1.81,3.69-15.07c1.57-6.57,2.59-10.61,3.08-12.14.48-1.52,1.07-2.78,1.74-3.77.68-.99,1.52-1.87,2.54-2.64,1.02-.77,2.11-1.37,3.29-1.78,1.18-.41,2.21-.61,3.1-.61.84,0,1.47.17,1.88.49.41.33.62.76.61,1.29,0,.45-.19.84-.56,1.17-.37.32-.84.48-1.41.48-.71,0-1.79-.13-3.23-.38-.47-.1-.88-.15-1.24-.15-.5,0-.98.18-1.42.53-.45.36-.85.99-1.2,1.91-.35.92-.85,2.82-1.49,5.71l-1.78,7.75c1.56-1.76,3.19-3.11,4.86-4.06,1.27-.71,2.48-1.06,3.63-1.05.81,0,1.5.31,2.05.92.56.61.83,1.38.83,2.3,0,1.73-.91,3.28-2.72,4.63-1.81,1.35-4.56,2.07-8.25,2.16,1.25.56,2.24,1.17,2.98,1.83.74.66,1.47,1.57,2.19,2.74.72,1.16,1.64,3.11,2.76,5.84,1.33,3.25,2.57,5.42,3.72,6.49,1.13,1.08,2.38,1.62,3.74,1.62.79,0,1.45-.17,1.97-.51.52-.35.78-.7.78-1.05,0-.23-.08-.54-.24-.93-.18-.42-.26-.78-.26-1.07,0-.37.15-.7.44-1,.29-.29.63-.44,1.02-.43.45,0,.84.19,1.17.55.32.37.48.85.48,1.45,0,1.17-.54,2.2-1.62,3.11-1.07.9-2.47,1.35-4.19,1.34s-3.35-.46-4.74-1.36c-1.39-.9-2.69-2.33-3.9-4.3-.69-1.14-1.9-3.73-3.62-7.78-.8-1.92-1.52-3.36-2.17-4.32-.5-.75-1.18-1.49-2.05-2.22l-2.41,10.5ZM155.03,181.89c2.18.03,3.94-.18,5.29-.61,1.35-.43,2.31-1.01,2.89-1.74.58-.73.87-1.52.87-2.38,0-.62-.16-1.11-.49-1.49-.33-.37-.73-.56-1.2-.56-1.52,0-3.86,1.68-7.01,5.06l-.34,1.72Z"/>
    </g>
    <g>
      <path class="cls-2" d="M137.52,78.38l-6.62,8.09,7.81,32.5c3.78,16.12,9.58,5.25,9.58,5.25,3.82,4.33,7.78,7.67,11.88,10.01,3.1,1.75,6.07,2.62,8.89,2.62,1.99,0,3.67-.74,5.04-2.24,1.37-1.49,2.06-3.37,2.06-5.64,0-4.25-2.21-8.05-6.62-11.39-4.41-3.34-11.15-5.13-20.21-5.37,3.06-1.35,5.51-2.84,7.33-4.45,1.83-1.61,3.63-3.84,5.4-6.69,1.77-2.85,4.04-7.61,6.83-14.3,3.3-7.96,6.36-13.25,9.18-15.88,2.78-2.63,5.84-3.94,9.18-3.94,1.95,0,3.56.43,4.83,1.28,1.27.86,1.91,1.72,1.91,2.59,0,.56-.2,1.31-.6,2.27-.44,1.03-.66,1.91-.66,2.62,0,.91.36,1.73,1.07,2.44.72.72,1.55,1.07,2.5,1.07,1.11,0,2.07-.45,2.86-1.34.79-.89,1.19-2.08,1.19-3.55,0-2.86-1.31-5.41-3.94-7.63-2.62-2.23-6.04-3.34-10.26-3.34s-8.21,1.1-11.63,3.28c-3.42,2.19-6.62,5.69-9.6,10.51-1.71,2.79-4.69,9.13-8.94,19.04-1.98,4.7-3.77,8.22-5.36,10.57-1.23,1.83-2.92,3.64-5.06,5.43l-8.07-33.84ZM146.15,114.73c5.34-.04,9.66.48,12.97,1.55,3.3,1.07,5.66,2.5,7.06,4.29,1.4,1.79,2.11,3.74,2.11,5.84,0,1.51-.41,2.72-1.22,3.64-.81.91-1.8,1.37-2.95,1.37-3.73,0-9.45-4.16-17.14-12.48l-.83-4.21Z"/>
      <path class="cls-2" d="M152.39,193.41l-4.07,1.81,3.69-15.07c1.49-6.25,3.91-2.13,3.91-2.13,1.56-1.76,3.19-3.11,4.86-4.06,1.27-.71,2.48-1.06,3.63-1.05.81,0,1.5.31,2.05.92.56.61.83,1.38.83,2.3,0,1.73-.91,3.28-2.72,4.63-1.81,1.35-4.56,2.07-8.25,2.16,1.25.56,2.24,1.17,2.98,1.83.74.66,1.47,1.57,2.19,2.74.72,1.16,1.64,3.11,2.76,5.84,1.33,3.25,2.57,5.42,3.72,6.49,1.13,1.08,2.38,1.62,3.74,1.62.79,0,1.45-.17,1.97-.51.52-.35.78-.7.78-1.05,0-.23-.08-.54-.24-.93-.18-.42-.26-.78-.26-1.07,0-.37.15-.7.44-1,.29-.29.63-.44,1.02-.43.45,0,.84.19,1.17.55.32.37.48.85.48,1.45,0,1.17-.54,2.2-1.62,3.11-1.07.9-2.47,1.35-4.19,1.34s-3.35-.46-4.74-1.36c-1.39-.9-2.69-2.33-3.9-4.3-.69-1.14-1.9-3.73-3.62-7.78-.8-1.92-1.52-3.36-2.17-4.32-.5-.75-1.18-1.49-2.05-2.22l-2.41,10.5ZM155.03,181.89c2.18.03,3.94-.18,5.29-.61,1.35-.43,2.31-1.01,2.89-1.74.58-.73.87-1.52.87-2.38,0-.62-.16-1.11-.49-1.49-.33-.37-.73-.56-1.2-.56-1.52,0-3.86,1.68-7.01,5.06l-.34,1.72Z"/>
    </g>
  </g>
</svg>